<svg xmlns="http://www.w3.org/2000/svg" width="92.027" height="105.174" viewBox="0 0 92.027 105.174"><path d="M0,95.314a9.863,9.863,0,0,0,9.86,9.86H82.167a9.863,9.863,0,0,0,9.86-9.86V39.44H0ZM65.734,55.052A2.472,2.472,0,0,1,68.2,52.587h8.217a2.472,2.472,0,0,1,2.465,2.465v8.217a2.472,2.472,0,0,1-2.465,2.465H68.2a2.472,2.472,0,0,1-2.465-2.465Zm0,26.294A2.472,2.472,0,0,1,68.2,78.881h8.217a2.472,2.472,0,0,1,2.465,2.465v8.217a2.472,2.472,0,0,1-2.465,2.465H68.2a2.472,2.472,0,0,1-2.465-2.465ZM39.44,55.052a2.472,2.472,0,0,1,2.465-2.465h8.217a2.472,2.472,0,0,1,2.465,2.465v8.217a2.472,2.472,0,0,1-2.465,2.465H41.905a2.472,2.472,0,0,1-2.465-2.465Zm0,26.294a2.472,2.472,0,0,1,2.465-2.465h8.217a2.472,2.472,0,0,1,2.465,2.465v8.217a2.472,2.472,0,0,1-2.465,2.465H41.905a2.472,2.472,0,0,1-2.465-2.465ZM13.147,55.052a2.472,2.472,0,0,1,2.465-2.465h8.217a2.472,2.472,0,0,1,2.465,2.465v8.217a2.472,2.472,0,0,1-2.465,2.465H15.612a2.472,2.472,0,0,1-2.465-2.465Zm0,26.294a2.472,2.472,0,0,1,2.465-2.465h8.217a2.472,2.472,0,0,1,2.465,2.465v8.217a2.472,2.472,0,0,1-2.465,2.465H15.612a2.472,2.472,0,0,1-2.465-2.465Zm69.021-68.2h-9.86V3.287A3.3,3.3,0,0,0,69.021,0H62.447A3.3,3.3,0,0,0,59.16,3.287v9.86H32.867V3.287A3.3,3.3,0,0,0,29.58,0H23.007A3.3,3.3,0,0,0,19.72,3.287v9.86H9.86A9.863,9.863,0,0,0,0,23.007v9.86H92.027v-9.86A9.863,9.863,0,0,0,82.167,13.147Z" fill="#fff"/></svg>