<svg xmlns="http://www.w3.org/2000/svg" width="19.412" height="19.412" viewBox="0 0 19.412 19.412"><path d="M13.385,89.706,18.9,84.187a1.735,1.735,0,0,0,0-2.453l-1.226-1.226a1.735,1.735,0,0,0-2.453,0L9.706,86.026,4.187,80.508a1.735,1.735,0,0,0-2.453,0L.508,81.734a1.735,1.735,0,0,0,0,2.453l5.519,5.519L.508,95.224a1.735,1.735,0,0,0,0,2.453L1.734,98.9a1.735,1.735,0,0,0,2.453,0l5.519-5.519L15.224,98.9a1.735,1.735,0,0,0,2.453,0L18.9,97.677a1.735,1.735,0,0,0,0-2.453Z" transform="translate(0 -80)"/></svg>