<svg xmlns="http://www.w3.org/2000/svg" width="21.74" height="19.023" viewBox="0 0 21.74 19.023"><path d="M.776,63.494H20.964a.776.776,0,0,0,.776-.776V60.776A.776.776,0,0,0,20.964,60H.776A.776.776,0,0,0,0,60.776v1.941A.776.776,0,0,0,.776,63.494Zm0,7.764H20.964a.776.776,0,0,0,.776-.776V68.541a.776.776,0,0,0-.776-.776H.776A.776.776,0,0,0,0,68.541v1.941A.776.776,0,0,0,.776,71.258Zm0,7.764H20.964a.776.776,0,0,0,.776-.776V76.305a.776.776,0,0,0-.776-.776H.776A.776.776,0,0,0,0,76.305v1.941A.776.776,0,0,0,.776,79.023Z" transform="translate(0 -60)"/></svg>