<svg xmlns="http://www.w3.org/2000/svg" xmlns:xlink="http://www.w3.org/1999/xlink" width="534.615" height="296.289" viewBox="0 0 534.615 296.289"><defs><linearGradient id="a" x1="0.327" y1="0.437" x2="-0.605" y2="0.5" gradientUnits="objectBoundingBox"><stop offset="0" stop-color="#fff"/><stop offset="1" stop-color="gray"/></linearGradient></defs><g transform="translate(-784.725 -202.762)"><path d="M278.074,359.327,645,348.542,381.682,230.561H278.074Z" transform="translate(674.342 139.724)" fill="url(#a)"/><g transform="translate(825.082 279.623)"><path d="M11.219,13.992,67.973,0,54.552,57.326,0,67.973Z" transform="translate(48.064 0) rotate(45)" fill="#8bc1c0"/><path d="M169.762,167v60.642l45.893,31.282V197.35Z" transform="translate(-169.762 -118.936)" fill="#06a7a1"/><path d="M169.762,167v5.034l3.81,2.6V169.52Z" transform="translate(-165.201 -104.216)" fill="#defffe"/><path d="M169.762,167v5.034l3.81,2.6V169.52Z" transform="translate(-165.201 -95.423)" fill="#defffe"/><path d="M169.762,167v5.034l3.81,2.6V169.52Z" transform="translate(-165.201 -86.631)" fill="#defffe"/><path d="M169.762,167v5.034l3.81,2.6V169.52Z" transform="translate(-165.201 -77.838)" fill="#defffe"/><path d="M169.762,167v5.034l3.81,2.6V169.52Z" transform="translate(-165.201 -69.045)" fill="#defffe"/><path d="M169.762,167v5.034L185.2,182.112v-5.254Z" transform="translate(-158.319 -100.393)" fill="#0b8ec8"/><path d="M169.762,167v5.034l8.63,4.974v-4.974Z" transform="translate(-139.697 -89.22)" fill="#64b7d6"/><path d="M169.762,167v5.034l8.63,4.974v-4.974Z" transform="translate(-139.697 -80.374)" fill="#64b7d6"/><path d="M169.762,167v5.034l8.63,4.974v-4.974Z" transform="translate(-139.697 -71.528)" fill="#64b7d6"/><path d="M169.762,167v5.034l8.63,4.974v-4.974Z" transform="translate(-139.697 -62.682)" fill="#64b7d6"/><path d="M169.762,167v5.034l8.63,4.974v-4.974Z" transform="translate(-139.697 -53.836)" fill="#64b7d6"/><path d="M169.762,167v5.034L185.2,182.112v-5.254Z" transform="translate(-158.319 -91.601)" fill="#0b8ec8"/><path d="M169.762,167v5.034L185.2,182.112v-5.254Z" transform="translate(-158.319 -82.808)" fill="#0b8ec8"/><path d="M169.762,167v5.034L185.2,182.112v-5.254Z" transform="translate(-158.319 -74.015)" fill="#0b8ec8"/><path d="M169.762,167v5.034L185.2,182.112v-5.254Z" transform="translate(-158.319 -65.223)" fill="#0b8ec8"/><path d="M220,167v60.642l-50.235,31.282V197.35Z" transform="translate(-123.87 -118.936)" fill="#048f9f"/><path d="M173.571,167v5.034l-3.808,2.6v-5.111Z" transform="translate(-82.292 -108.354)" fill="#37c9e6"/><path d="M163.755,167v5.384l-15.438,9.728V176.9Z" transform="translate(-80.608 -103.233)" fill="#37c9e6"/><ellipse cx="11.174" cy="13.269" rx="11.174" ry="13.269" transform="translate(72.401 80.074) rotate(41)" fill="#16598d"/><line x2="59.127" y2="39.573" transform="translate(67.851 95.785)" stroke-dasharray="14 14" stroke="#00bbb5" stroke-linecap="round" stroke-width="4" fill="none"/></g><g transform="translate(787.5 202.762)"><line x2="125.145" y2="83.758" transform="translate(0 43.099)" stroke-dasharray="14 14" stroke="#00bbb5" stroke-linecap="round" stroke-width="4" fill="none"/><path d="M23.745,29.615,143.867,0,115.462,121.333,0,143.867Z" transform="translate(169.98 0) rotate(45)" fill="#8bc1c0"/><path d="M169.762,167V295.351L266.9,361.56V231.237Z" transform="translate(-101.512 -65.271)" fill="#06a7a1"/><path d="M169.762,167v10.656l8.064,5.5V172.333Z" transform="translate(-91.856 -34.116)" fill="#defffe"/><path d="M169.762,167v10.656l8.064,5.5V172.333Z" transform="translate(-91.856 -15.506)" fill="#defffe"/><path d="M169.762,167v10.656l8.064,5.5V172.333Z" transform="translate(-91.856 3.104)" fill="#defffe"/><path d="M169.762,167v10.656l8.064,5.5V172.333Z" transform="translate(-91.856 21.714)" fill="#defffe"/><path d="M169.762,167v10.656l8.064,5.5V172.333Z" transform="translate(-91.856 40.324)" fill="#defffe"/><path d="M169.762,167v10.656l32.675,21.329v-11.12Z" transform="translate(-77.292 -26.024)" fill="#0b8ec8"/><path d="M169.762,167v10.656l18.266,10.529V177.656Z" transform="translate(-37.876 -2.375)" fill="#64b7d6"/><path d="M169.762,167v10.656l18.266,10.529V177.656Z" transform="translate(-37.876 16.347)" fill="#64b7d6"/><path d="M169.762,167v10.656l18.266,10.529V177.656Z" transform="translate(-37.876 35.07)" fill="#64b7d6"/><path d="M169.762,167v10.656l18.266,10.529V177.656Z" transform="translate(-37.876 53.792)" fill="#64b7d6"/><path d="M169.762,167v10.656l18.266,10.529V177.656Z" transform="translate(-37.876 72.515)" fill="#64b7d6"/><path d="M169.762,167v10.656l32.675,21.329v-11.12Z" transform="translate(-77.292 -7.414)" fill="#0b8ec8"/><path d="M169.762,167v10.656l32.675,21.329v-11.12Z" transform="translate(-77.292 11.196)" fill="#0b8ec8"/><path d="M169.762,167v10.656l32.675,21.329v-11.12Z" transform="translate(-77.292 29.806)" fill="#0b8ec8"/><path d="M169.762,167v10.656l32.675,21.329v-11.12Z" transform="translate(-77.292 48.415)" fill="#0b8ec8"/><path d="M276.087,167V295.351L169.762,361.56V231.237Z" transform="translate(-4.378 -65.271)" fill="#0d808d"/><path d="M177.823,167v10.655l-8.06,5.5V172.332Z" transform="translate(83.621 -42.873)" fill="#37c9e6"/><path d="M180.993,167v11.4l-32.676,20.59V187.953Z" transform="translate(63.241 -32.034)" fill="#37c9e6"/><path d="M23.649,0C36.711,0,47.3,12.573,47.3,28.084S36.711,56.167,23.649,56.167,0,43.594,0,28.084,10.588,0,23.649,0Z" transform="translate(221.489 169.48) rotate(41)" fill="#215175"/><line x2="125.145" y2="83.758" transform="translate(211.859 202.732)" stroke-dasharray="14 14" stroke="#00bbb5" stroke-linecap="round" stroke-width="4" fill="none"/></g></g></svg>
